<svg width="50" height="50" viewBox="0 0 50 50" fill="none" xmlns="http://www.w3.org/2000/svg">
<rect width="50" height="50" fill="#E5E5E5"/>
<rect width="1440" height="1024" transform="translate(-1346 -61)" fill="white"/>
<path d="M16.6667 25L16.6667 16.6667C16.6667 12.0643 20.3976 8.33333 25 8.33333V8.33333C29.6024 8.33333 33.3334 12.0643 33.3334 16.6667L33.3334 25" stroke="#F37381" stroke-linecap="round"/>
<path d="M8.02768 22.4178C8.17276 20.6769 8.24529 19.8065 8.81938 19.2782C9.39347 18.75 10.2669 18.75 12.0139 18.75H37.9861C39.7331 18.75 40.6065 18.75 41.1806 19.2782C41.7547 19.8065 41.8272 20.6769 41.9723 22.4178L43.5695 41.5839C43.654 42.5974 43.6962 43.1042 43.3991 43.4271C43.102 43.75 42.5935 43.75 41.5764 43.75H8.4236C7.40655 43.75 6.89802 43.75 6.60092 43.4271C6.30382 43.1042 6.34605 42.5974 6.43051 41.5839L8.02768 22.4178Z" fill="#F37381"/>
</svg>
