<svg width="38" height="33" viewBox="0 0 38 33" fill="none" xmlns="http://www.w3.org/2000/svg">
<path d="M4.06716 17.6716L18.3076 31.3357C18.6352 31.6499 18.7989 31.8071 19 31.8071C19.2011 31.8071 19.3648 31.6499 19.6924 31.3357L33.9328 17.6716C34.1966 17.4185 34.3284 17.292 34.4392 17.1779C37.4553 14.072 37.8326 9.25868 35.3372 5.72073C35.2456 5.59082 35.1351 5.44532 34.9141 5.15436L34.914 5.15421L34.9137 5.15384C34.5453 4.66884 34.3611 4.4263 34.2272 4.26785C30.393 -0.270791 23.1241 0.80611 20.7705 6.26148C20.6883 6.45197 20.5823 6.73761 20.3702 7.30888L20.0435 8.18904C19.9569 8.42235 19.9135 8.53901 19.881 8.59962C19.5037 9.30213 18.4963 9.30213 18.119 8.59962C18.0865 8.53901 18.0431 8.42235 17.9565 8.18904L17.6298 7.30888C17.4177 6.73761 17.3117 6.45197 17.2295 6.26148C14.8759 0.80611 7.607 -0.270791 3.77279 4.26785C3.63891 4.42633 3.45462 4.66895 3.08604 5.15418L3.08602 5.15421L3.08601 5.15422C2.86494 5.44527 2.7544 5.5908 2.66276 5.72073C0.167416 9.25868 0.54469 14.072 3.56079 17.1779C3.67155 17.292 3.80341 17.4185 4.06711 17.6715L4.06716 17.6716Z" fill="#F37381" stroke="#F37381" stroke-width="2"/>
</svg>
